<svg xmlns="http://www.w3.org/2000/svg" width="375" viewBox="0 0 375 375" height="375" version="1.0"><path fill="#FFF" d="M 170.355469 188.09375 C 170.347656 187.5625 170.367188 187.03125 170.414062 186.503906 C 170.457031 185.976562 170.53125 185.449219 170.625 184.929688 C 170.722656 184.40625 170.847656 183.890625 170.996094 183.382812 C 171.144531 182.871094 171.316406 182.371094 171.515625 181.878906 C 171.710938 181.386719 171.933594 180.90625 172.179688 180.433594 C 172.421875 179.964844 172.691406 179.507812 172.980469 179.0625 C 173.273438 178.617188 173.585938 178.191406 173.917969 177.777344 C 174.25 177.363281 174.601562 176.96875 174.972656 176.589844 C 175.347656 176.210938 175.734375 175.851562 176.144531 175.511719 C 176.550781 175.171875 176.972656 174.851562 177.410156 174.554688 C 177.851562 174.257812 178.304688 173.980469 178.769531 173.726562 C 179.234375 173.472656 179.714844 173.242188 180.203125 173.039062 C 180.691406 172.832031 181.1875 172.648438 181.695312 172.492188 C 182.203125 172.335938 182.714844 172.203125 183.234375 172.097656 C 183.753906 171.988281 184.277344 171.910156 184.808594 171.855469 C 185.335938 171.800781 185.863281 171.769531 186.394531 171.769531 C 186.925781 171.765625 187.453125 171.789062 187.984375 171.839844 C 188.511719 171.890625 189.035156 171.964844 189.554688 172.066406 C 190.078125 172.167969 190.589844 172.296875 191.101562 172.449219 C 191.609375 172.601562 192.105469 172.777344 192.597656 172.980469 C 193.089844 173.179688 193.570312 173.40625 194.035156 173.65625 C 194.503906 173.90625 194.960938 174.175781 195.402344 174.46875 C 195.84375 174.765625 196.269531 175.078125 196.679688 175.414062 C 197.089844 175.753906 197.484375 176.109375 197.859375 176.484375 C 198.234375 176.859375 198.589844 177.25 198.925781 177.660156 C 199.265625 178.070312 199.578125 178.496094 199.875 178.9375 C 200.167969 179.378906 200.441406 179.832031 200.691406 180.300781 C 200.941406 180.769531 201.167969 181.25 201.367188 181.738281 C 201.570312 182.230469 201.75 182.730469 201.902344 183.238281 C 202.054688 183.746094 202.183594 184.261719 202.285156 184.78125 C 202.386719 185.300781 202.460938 185.824219 202.511719 186.355469 C 202.5625 186.882812 202.585938 187.410156 202.585938 187.941406 C 202.582031 188.472656 202.554688 189.003906 202.5 189.53125 C 202.449219 190.058594 202.367188 190.582031 202.261719 191.101562 C 202.15625 191.621094 202.023438 192.136719 201.867188 192.640625 C 201.710938 193.148438 201.53125 193.648438 201.324219 194.136719 C 201.117188 194.625 200.890625 195.101562 200.636719 195.570312 C 200.382812 196.035156 200.109375 196.488281 199.808594 196.925781 C 199.511719 197.367188 199.195312 197.789062 198.855469 198.199219 C 198.515625 198.605469 198.15625 198.996094 197.777344 199.367188 C 197.398438 199.742188 197.003906 200.09375 196.589844 200.425781 C 196.179688 200.757812 195.75 201.070312 195.304688 201.363281 C 194.863281 201.652344 194.40625 201.921875 193.933594 202.167969 C 193.464844 202.414062 192.984375 202.636719 192.492188 202.832031 C 192 203.03125 191.5 203.207031 190.988281 203.355469 C 190.480469 203.503906 189.964844 203.625 189.441406 203.722656 C 188.921875 203.824219 188.394531 203.894531 187.867188 203.941406 C 187.339844 203.988281 186.808594 204.007812 186.277344 204 C 185.238281 203.984375 184.207031 203.871094 183.191406 203.65625 C 182.171875 203.445312 181.183594 203.136719 180.222656 202.730469 C 179.265625 202.324219 178.351562 201.832031 177.488281 201.253906 C 176.625 200.671875 175.824219 200.011719 175.089844 199.277344 C 174.351562 198.542969 173.695312 197.742188 173.113281 196.878906 C 172.53125 196.015625 172.035156 195.105469 171.628906 194.148438 C 171.226562 193.1875 170.914062 192.199219 170.699219 191.183594 C 170.484375 190.164062 170.371094 189.132812 170.355469 188.09375 Z M 170.355469 188.09375"/><path fill="#FFF" d="M 186.277344 0.699219 C 183.214844 0.699219 180.15625 0.777344 177.097656 0.933594 C 174.039062 1.085938 170.984375 1.3125 167.9375 1.617188 C 164.890625 1.921875 161.851562 2.296875 158.824219 2.75 C 155.796875 3.203125 152.78125 3.730469 149.777344 4.328125 C 146.773438 4.929688 143.789062 5.601562 140.816406 6.351562 C 137.847656 7.097656 134.898438 7.914062 131.96875 8.808594 C 129.039062 9.699219 126.132812 10.660156 123.25 11.695312 C 120.367188 12.730469 117.511719 13.835938 114.683594 15.007812 C 111.855469 16.183594 109.058594 17.425781 106.289062 18.738281 C 103.523438 20.050781 100.789062 21.429688 98.089844 22.875 C 95.390625 24.320312 92.726562 25.832031 90.101562 27.40625 C 87.476562 28.984375 84.890625 30.625 82.347656 32.328125 C 79.800781 34.03125 77.300781 35.796875 74.839844 37.621094 C 72.382812 39.449219 69.972656 41.332031 67.605469 43.277344 C 65.238281 45.222656 62.921875 47.222656 60.65625 49.28125 C 58.386719 51.339844 56.171875 53.453125 54.007812 55.617188 C 51.84375 57.785156 49.734375 60.003906 47.679688 62.273438 C 45.625 64.546875 43.625 66.863281 41.683594 69.234375 C 39.742188 71.601562 37.863281 74.015625 36.039062 76.476562 C 34.214844 78.9375 32.453125 81.441406 30.753906 83.988281 C 29.054688 86.535156 27.417969 89.125 25.847656 91.75 C 24.273438 94.378906 22.765625 97.042969 21.324219 99.746094 C 19.882812 102.445312 18.507812 105.183594 17.199219 107.953125 C 15.890625 110.71875 14.652344 113.519531 13.480469 116.351562 C 12.308594 119.179688 11.210938 122.035156 10.179688 124.921875 C 9.148438 127.804688 8.191406 130.710938 7.304688 133.644531 C 6.414062 136.574219 5.601562 139.523438 4.855469 142.496094 C 4.113281 145.464844 3.445312 148.453125 2.847656 151.457031 C 2.253906 154.460938 1.730469 157.476562 1.28125 160.507812 C 0.835938 163.539062 0.460938 166.574219 0.160156 169.625 C -0.136719 172.671875 -0.359375 175.722656 -0.511719 178.785156 C -0.660156 181.84375 -0.734375 184.902344 -0.734375 187.964844 C -0.730469 191.027344 -0.65625 194.089844 -0.503906 197.148438 C -0.351562 200.207031 -0.125 203.257812 0.175781 206.304688 C 0.476562 209.351562 0.851562 212.390625 1.300781 215.421875 C 1.75 218.449219 2.277344 221.464844 2.875 224.46875 C 3.472656 227.472656 4.144531 230.460938 4.886719 233.429688 C 5.632812 236.402344 6.449219 239.351562 7.339844 242.28125 C 8.230469 245.210938 9.191406 248.117188 10.222656 251 C 11.253906 253.886719 12.355469 256.742188 13.53125 259.570312 C 14.703125 262.398438 15.941406 265.199219 17.253906 267.964844 C 18.5625 270.734375 19.941406 273.46875 21.382812 276.167969 C 22.828125 278.871094 24.335938 281.535156 25.910156 284.160156 C 27.484375 286.785156 29.125 289.371094 30.824219 291.917969 C 32.527344 294.464844 34.289062 296.96875 36.113281 299.425781 C 37.9375 301.886719 39.824219 304.300781 41.765625 306.667969 C 43.707031 309.035156 45.707031 311.351562 47.765625 313.621094 C 49.820312 315.890625 51.933594 318.109375 54.097656 320.273438 C 56.261719 322.4375 58.480469 324.550781 60.75 326.605469 C 63.019531 328.664062 65.335938 330.664062 67.703125 332.605469 C 70.070312 334.550781 72.484375 336.433594 74.945312 338.257812 C 77.402344 340.082031 79.90625 341.84375 82.453125 343.546875 C 85 345.246094 87.585938 346.886719 90.210938 348.460938 C 92.839844 350.035156 95.503906 351.542969 98.203125 352.988281 C 100.902344 354.433594 103.636719 355.808594 106.40625 357.117188 C 109.175781 358.429688 111.972656 359.667969 114.800781 360.84375 C 117.628906 362.015625 120.488281 363.117188 123.371094 364.148438 C 126.253906 365.179688 129.160156 366.140625 132.089844 367.03125 C 135.019531 367.921875 137.972656 368.738281 140.941406 369.484375 C 143.910156 370.226562 146.898438 370.898438 149.902344 371.5 C 152.90625 372.097656 155.921875 372.621094 158.949219 373.070312 C 161.980469 373.519531 165.019531 373.894531 168.066406 374.199219 C 171.113281 374.5 174.167969 374.726562 177.226562 374.875 C 180.285156 375.027344 183.34375 375.101562 186.40625 375.105469 C 189.46875 375.105469 192.53125 375.03125 195.589844 374.882812 C 198.648438 374.734375 201.699219 374.507812 204.75 374.210938 C 207.796875 373.910156 210.835938 373.539062 213.863281 373.089844 C 216.894531 372.640625 219.910156 372.121094 222.914062 371.523438 C 225.917969 370.925781 228.90625 370.257812 231.875 369.515625 C 234.847656 368.773438 237.796875 367.957031 240.730469 367.070312 C 243.660156 366.179688 246.566406 365.222656 249.453125 364.191406 C 252.335938 363.160156 255.191406 362.0625 258.023438 360.890625 C 260.851562 359.722656 263.652344 358.480469 266.421875 357.171875 C 269.1875 355.867188 271.925781 354.492188 274.625 353.046875 C 277.328125 351.605469 279.992188 350.097656 282.621094 348.527344 C 285.246094 346.953125 287.835938 345.316406 290.382812 343.617188 C 292.929688 341.917969 295.433594 340.15625 297.894531 338.332031 C 300.355469 336.511719 302.769531 334.628906 305.140625 332.6875 C 307.507812 330.746094 309.828125 328.746094 312.097656 326.691406 C 314.367188 324.636719 316.585938 322.527344 318.753906 320.363281 C 320.921875 318.199219 323.03125 315.984375 325.089844 313.71875 C 327.148438 311.449219 329.152344 309.132812 331.09375 306.765625 C 333.039062 304.402344 334.925781 301.988281 336.75 299.53125 C 338.578125 297.070312 340.339844 294.570312 342.046875 292.027344 C 343.75 289.480469 345.386719 286.894531 346.964844 284.269531 C 348.542969 281.644531 350.050781 278.980469 351.496094 276.28125 C 352.945312 273.582031 354.324219 270.847656 355.632812 268.082031 C 356.945312 265.316406 358.1875 262.515625 359.363281 259.6875 C 360.539062 256.859375 361.640625 254.003906 362.675781 251.121094 C 363.710938 248.238281 364.671875 245.332031 365.566406 242.402344 C 366.457031 239.472656 367.277344 236.523438 368.023438 233.554688 C 368.769531 230.585938 369.441406 227.597656 370.042969 224.59375 C 370.644531 221.59375 371.167969 218.578125 371.621094 215.546875 C 372.074219 212.519531 372.453125 209.480469 372.753906 206.433594 C 373.058594 203.386719 373.285156 200.332031 373.441406 197.273438 C 373.59375 194.214844 373.671875 191.15625 373.675781 188.09375 C 373.675781 185.027344 373.597656 181.960938 373.445312 178.898438 C 373.296875 175.835938 373.070312 172.777344 372.769531 169.722656 C 372.46875 166.671875 372.09375 163.628906 371.640625 160.59375 C 371.191406 157.5625 370.667969 154.539062 370.066406 151.53125 C 369.46875 148.523438 368.796875 145.53125 368.050781 142.558594 C 367.304688 139.582031 366.488281 136.628906 365.597656 133.691406 C 364.707031 130.757812 363.746094 127.847656 362.710938 124.957031 C 361.675781 122.070312 360.574219 119.210938 359.398438 116.378906 C 358.226562 113.542969 356.984375 110.742188 355.671875 107.96875 C 354.359375 105.195312 352.980469 102.457031 351.535156 99.753906 C 350.089844 97.046875 348.578125 94.378906 347 91.75 C 345.425781 89.121094 343.785156 86.527344 342.082031 83.980469 C 340.375 81.429688 338.609375 78.921875 336.785156 76.460938 C 334.957031 73.996094 333.070312 71.578125 331.125 69.207031 C 329.179688 66.835938 327.175781 64.515625 325.117188 62.242188 C 323.058594 59.972656 320.945312 57.75 318.773438 55.582031 C 316.605469 53.414062 314.386719 51.300781 312.113281 49.242188 C 309.839844 47.179688 307.519531 45.179688 305.148438 43.234375 C 302.777344 41.289062 300.363281 39.402344 297.898438 37.574219 C 295.4375 35.746094 292.929688 33.980469 290.378906 32.277344 C 287.828125 30.574219 285.238281 28.933594 282.609375 27.359375 C 279.980469 25.78125 277.3125 24.269531 274.605469 22.824219 C 271.902344 21.378906 269.164062 20 266.390625 18.6875 C 263.621094 17.378906 260.816406 16.136719 257.984375 14.960938 C 255.152344 13.789062 252.289062 12.683594 249.402344 11.652344 C 246.515625 10.617188 243.605469 9.65625 240.671875 8.765625 C 237.734375 7.875 234.78125 7.058594 231.808594 6.3125 C 228.832031 5.566406 225.839844 4.898438 222.832031 4.296875 C 219.828125 3.699219 216.804688 3.175781 213.773438 2.726562 C 210.738281 2.277344 207.695312 1.902344 204.644531 1.601562 C 201.59375 1.300781 198.535156 1.074219 195.472656 0.921875 C 192.410156 0.773438 189.34375 0.699219 186.277344 0.699219 Z M 295.832031 188.09375 C 295.828125 189.886719 295.785156 191.675781 295.695312 193.46875 C 295.605469 195.257812 295.472656 197.042969 295.296875 198.828125 C 295.117188 200.613281 294.898438 202.390625 294.632812 204.164062 C 294.371094 205.9375 294.0625 207.703125 293.710938 209.460938 C 293.359375 211.21875 292.96875 212.964844 292.53125 214.703125 C 292.09375 216.441406 291.617188 218.167969 291.09375 219.882812 C 290.574219 221.601562 290.011719 223.300781 289.40625 224.988281 C 288.800781 226.675781 288.15625 228.347656 287.46875 230.003906 C 286.78125 231.660156 286.054688 233.296875 285.289062 234.917969 C 284.523438 236.539062 283.714844 238.136719 282.871094 239.71875 C 282.023438 241.300781 281.140625 242.859375 280.21875 244.394531 C 279.296875 245.933594 278.335938 247.445312 277.339844 248.9375 C 276.34375 250.425781 275.3125 251.890625 274.246094 253.332031 C 273.175781 254.769531 272.074219 256.183594 270.9375 257.570312 C 269.800781 258.953125 268.628906 260.3125 267.425781 261.640625 C 266.222656 262.96875 264.984375 264.265625 263.71875 265.53125 C 262.453125 266.800781 261.152344 268.035156 259.824219 269.238281 C 258.496094 270.445312 257.140625 271.613281 255.753906 272.75 C 254.371094 273.890625 252.957031 274.992188 251.515625 276.058594 C 250.078125 277.128906 248.613281 278.160156 247.121094 279.15625 C 245.632812 280.152344 244.117188 281.109375 242.582031 282.03125 C 241.042969 282.953125 239.484375 283.839844 237.90625 284.683594 C 236.324219 285.527344 234.722656 286.335938 233.101562 287.101562 C 231.484375 287.871094 229.84375 288.597656 228.1875 289.28125 C 226.535156 289.96875 224.863281 290.613281 223.175781 291.21875 C 221.488281 291.824219 219.785156 292.386719 218.070312 292.910156 C 216.355469 293.429688 214.628906 293.910156 212.890625 294.34375 C 211.152344 294.78125 209.402344 295.175781 207.644531 295.527344 C 205.886719 295.875 204.121094 296.183594 202.347656 296.449219 C 200.578125 296.710938 198.796875 296.933594 197.015625 297.109375 C 195.230469 297.285156 193.445312 297.421875 191.652344 297.507812 C 189.863281 297.597656 188.070312 297.644531 186.277344 297.644531 L 186.277344 281.949219 C 187.816406 281.949219 189.351562 281.910156 190.886719 281.835938 C 192.421875 281.761719 193.957031 281.648438 195.484375 281.5 C 197.015625 281.347656 198.539062 281.164062 200.058594 280.9375 C 201.582031 280.710938 203.09375 280.449219 204.601562 280.152344 C 206.109375 279.851562 207.609375 279.515625 209.101562 279.144531 C 210.59375 278.773438 212.074219 278.363281 213.542969 277.917969 C 215.015625 277.472656 216.476562 276.992188 217.921875 276.476562 C 219.371094 275.960938 220.804688 275.40625 222.226562 274.820312 C 223.644531 274.234375 225.050781 273.613281 226.441406 272.957031 C 227.832031 272.300781 229.203125 271.609375 230.558594 270.886719 C 231.917969 270.164062 233.253906 269.40625 234.574219 268.617188 C 235.890625 267.828125 237.191406 267.007812 238.46875 266.15625 C 239.75 265.304688 241.007812 264.421875 242.242188 263.507812 C 243.476562 262.59375 244.691406 261.648438 245.878906 260.675781 C 247.070312 259.699219 248.234375 258.699219 249.375 257.667969 C 250.515625 256.636719 251.628906 255.578125 252.714844 254.492188 C 253.804688 253.40625 254.867188 252.296875 255.898438 251.160156 C 256.933594 250.023438 257.9375 248.859375 258.914062 247.671875 C 259.890625 246.484375 260.839844 245.277344 261.757812 244.042969 C 262.675781 242.808594 263.558594 241.554688 264.417969 240.277344 C 265.273438 239 266.097656 237.703125 266.886719 236.386719 C 267.679688 235.070312 268.441406 233.734375 269.167969 232.378906 C 269.894531 231.027344 270.585938 229.65625 271.246094 228.265625 C 271.90625 226.878906 272.53125 225.472656 273.121094 224.054688 C 273.710938 222.636719 274.269531 221.203125 274.789062 219.757812 C 275.308594 218.3125 275.792969 216.851562 276.242188 215.382812 C 276.691406 213.914062 277.105469 212.433594 277.480469 210.941406 C 277.855469 209.453125 278.195312 207.953125 278.5 206.445312 C 278.800781 204.941406 279.066406 203.425781 279.296875 201.90625 C 279.527344 200.386719 279.71875 198.863281 279.871094 197.332031 C 280.023438 195.804688 280.140625 194.269531 280.21875 192.734375 C 280.296875 191.199219 280.339844 189.664062 280.34375 188.128906 Z M 38.527344 188.09375 C 38.527344 185.671875 38.589844 183.253906 38.707031 180.835938 C 38.824219 178.414062 39.003906 176.003906 39.238281 173.59375 C 39.476562 171.183594 39.773438 168.78125 40.125 166.386719 C 40.480469 163.992188 40.894531 161.605469 41.367188 159.230469 C 41.835938 156.855469 42.367188 154.496094 42.953125 152.144531 C 43.539062 149.796875 44.183594 147.464844 44.886719 145.148438 C 45.585938 142.828125 46.34375 140.53125 47.15625 138.25 C 47.972656 135.972656 48.839844 133.710938 49.765625 131.472656 C 50.691406 129.238281 51.667969 127.023438 52.703125 124.832031 C 53.734375 122.644531 54.820312 120.480469 55.960938 118.34375 C 57.097656 116.207031 58.289062 114.101562 59.53125 112.023438 C 60.773438 109.945312 62.066406 107.898438 63.410156 105.882812 C 64.75 103.867188 66.140625 101.886719 67.582031 99.941406 C 69.023438 97.996094 70.507812 96.085938 72.039062 94.210938 C 73.574219 92.335938 75.152344 90.503906 76.773438 88.707031 C 78.398438 86.910156 80.0625 85.152344 81.773438 83.4375 C 83.480469 81.722656 85.230469 80.050781 87.023438 78.421875 C 88.8125 76.792969 90.644531 75.210938 92.511719 73.667969 C 94.382812 72.128906 96.285156 70.636719 98.226562 69.191406 C 100.167969 67.746094 102.144531 66.347656 104.15625 64.996094 C 106.164062 63.648438 108.207031 62.347656 110.28125 61.101562 C 112.355469 59.851562 114.457031 58.652344 116.589844 57.507812 C 118.722656 56.359375 120.882812 55.265625 123.070312 54.226562 C 125.253906 53.1875 127.464844 52.199219 129.699219 51.265625 C 131.933594 50.335938 134.191406 49.457031 136.46875 48.636719 C 138.746094 47.816406 141.039062 47.050781 143.355469 46.339844 C 145.671875 45.628906 148 44.980469 150.347656 44.382812 C 152.695312 43.789062 155.054688 43.25 157.425781 42.773438 C 159.800781 42.292969 162.183594 41.871094 164.578125 41.507812 C 166.972656 41.144531 169.371094 40.84375 171.78125 40.597656 C 174.191406 40.351562 176.601562 40.167969 179.019531 40.039062 C 181.4375 39.914062 183.859375 39.84375 186.277344 39.835938 L 186.277344 55.8125 C 184.117188 55.820312 181.953125 55.878906 179.792969 55.988281 C 177.632812 56.101562 175.480469 56.265625 173.328125 56.484375 C 171.175781 56.699219 169.03125 56.96875 166.890625 57.292969 C 164.75 57.613281 162.621094 57.988281 160.5 58.414062 C 158.382812 58.839844 156.273438 59.316406 154.175781 59.847656 C 152.078125 60.375 149.996094 60.957031 147.925781 61.589844 C 145.859375 62.21875 143.804688 62.902344 141.769531 63.632812 C 139.734375 64.367188 137.71875 65.148438 135.722656 65.976562 C 133.726562 66.808594 131.75 67.6875 129.796875 68.613281 C 127.84375 69.542969 125.910156 70.515625 124.003906 71.539062 C 122.097656 72.558594 120.21875 73.628906 118.363281 74.742188 C 116.511719 75.855469 114.683594 77.011719 112.886719 78.214844 C 111.089844 79.417969 109.324219 80.667969 107.585938 81.957031 C 105.851562 83.246094 104.148438 84.578125 102.476562 85.949219 C 100.804688 87.324219 99.167969 88.734375 97.566406 90.1875 C 95.964844 91.640625 94.398438 93.132812 92.871094 94.664062 C 91.339844 96.195312 89.851562 97.757812 88.398438 99.363281 C 86.945312 100.964844 85.535156 102.601562 84.160156 104.273438 C 82.789062 105.945312 81.457031 107.652344 80.171875 109.386719 C 78.882812 111.125 77.636719 112.890625 76.433594 114.691406 C 75.230469 116.488281 74.074219 118.3125 72.960938 120.167969 C 71.847656 122.023438 70.78125 123.90625 69.761719 125.8125 C 68.738281 127.71875 67.765625 129.648438 66.839844 131.601562 C 65.914062 133.558594 65.035156 135.535156 64.207031 137.53125 C 63.378906 139.527344 62.597656 141.546875 61.867188 143.582031 C 61.136719 145.617188 60.453125 147.667969 59.824219 149.738281 C 59.195312 151.808594 58.613281 153.890625 58.085938 155.988281 C 57.558594 158.085938 57.082031 160.195312 56.65625 162.316406 C 56.230469 164.433594 55.859375 166.566406 55.535156 168.703125 C 55.214844 170.84375 54.949219 172.988281 54.730469 175.140625 C 54.515625 177.292969 54.351562 179.449219 54.242188 181.609375 C 54.132812 183.769531 54.074219 185.929688 54.070312 188.09375 Z M 76.726562 188.09375 C 76.726562 186.300781 76.773438 184.507812 76.859375 182.71875 C 76.949219 180.925781 77.082031 179.140625 77.257812 177.355469 C 77.433594 175.570312 77.65625 173.792969 77.917969 172.019531 C 78.183594 170.246094 78.488281 168.480469 78.839844 166.71875 C 79.191406 164.960938 79.582031 163.214844 80.019531 161.472656 C 80.457031 159.734375 80.933594 158.007812 81.457031 156.292969 C 81.976562 154.574219 82.539062 152.875 83.144531 151.1875 C 83.746094 149.496094 84.390625 147.824219 85.078125 146.167969 C 85.765625 144.511719 86.492188 142.875 87.257812 141.253906 C 88.023438 139.632812 88.832031 138.03125 89.675781 136.449219 C 90.523438 134.871094 91.40625 133.308594 92.328125 131.773438 C 93.25 130.234375 94.207031 128.71875 95.203125 127.230469 C 96.199219 125.738281 97.230469 124.273438 98.300781 122.832031 C 99.367188 121.390625 100.46875 119.976562 101.605469 118.59375 C 102.746094 117.207031 103.914062 115.847656 105.117188 114.519531 C 106.324219 113.191406 107.558594 111.894531 108.824219 110.625 C 110.09375 109.355469 111.390625 108.121094 112.71875 106.914062 C 114.046875 105.710938 115.40625 104.539062 116.789062 103.402344 C 118.175781 102.265625 119.589844 101.160156 121.027344 100.09375 C 122.46875 99.023438 123.933594 97.992188 125.421875 96.996094 C 126.914062 95.996094 128.429688 95.039062 129.964844 94.117188 C 131.503906 93.191406 133.0625 92.308594 134.644531 91.460938 C 136.222656 90.617188 137.824219 89.808594 139.445312 89.042969 C 141.066406 88.273438 142.703125 87.546875 144.359375 86.859375 C 146.015625 86.171875 147.6875 85.527344 149.375 84.921875 C 151.0625 84.316406 152.765625 83.753906 154.480469 83.230469 C 156.195312 82.710938 157.921875 82.230469 159.660156 81.792969 C 161.402344 81.355469 163.148438 80.964844 164.90625 80.613281 C 166.664062 80.261719 168.429688 79.953125 170.203125 79.6875 C 171.976562 79.425781 173.757812 79.203125 175.542969 79.027344 C 177.324219 78.847656 179.113281 78.714844 180.902344 78.625 C 182.695312 78.535156 184.484375 78.488281 186.277344 78.488281 L 186.277344 93.960938 C 184.742188 93.964844 183.203125 94.003906 181.667969 94.085938 C 180.132812 94.164062 178.597656 94.28125 177.066406 94.433594 C 175.539062 94.589844 174.011719 94.78125 172.492188 95.011719 C 170.96875 95.242188 169.457031 95.507812 167.949219 95.8125 C 166.441406 96.113281 164.941406 96.457031 163.449219 96.832031 C 161.957031 97.210938 160.476562 97.625 159.007812 98.074219 C 157.535156 98.523438 156.078125 99.007812 154.628906 99.53125 C 153.183594 100.050781 151.75 100.609375 150.328125 101.199219 C 148.910156 101.792969 147.503906 102.417969 146.117188 103.078125 C 144.726562 103.742188 143.355469 104.433594 142 105.164062 C 140.644531 105.890625 139.308594 106.652344 137.992188 107.445312 C 136.671875 108.238281 135.375 109.066406 134.097656 109.921875 C 132.820312 110.777344 131.566406 111.667969 130.332031 112.585938 C 129.097656 113.503906 127.890625 114.453125 126.703125 115.433594 C 125.515625 116.410156 124.351562 117.417969 123.214844 118.453125 C 122.078125 119.488281 120.964844 120.550781 119.878906 121.640625 C 118.796875 122.730469 117.738281 123.84375 116.707031 124.988281 C 115.675781 126.128906 114.671875 127.292969 113.699219 128.484375 C 112.726562 129.675781 111.78125 130.890625 110.867188 132.128906 C 109.953125 133.363281 109.070312 134.625 108.21875 135.902344 C 107.367188 137.183594 106.546875 138.484375 105.757812 139.804688 C 104.96875 141.125 104.214844 142.464844 103.492188 143.824219 C 102.769531 145.179688 102.078125 146.554688 101.421875 147.945312 C 100.769531 149.339844 100.148438 150.746094 99.5625 152.167969 C 98.976562 153.589844 98.421875 155.023438 97.90625 156.472656 C 97.390625 157.921875 96.910156 159.382812 96.46875 160.855469 C 96.023438 162.328125 95.617188 163.8125 95.242188 165.304688 C 94.871094 166.796875 94.539062 168.296875 94.238281 169.808594 C 93.941406 171.316406 93.679688 172.832031 93.457031 174.351562 C 93.234375 175.875 93.046875 177.402344 92.898438 178.933594 C 92.75 180.464844 92.640625 181.996094 92.566406 183.535156 C 92.492188 185.070312 92.457031 186.605469 92.460938 188.144531 Z M 112.9375 188.09375 C 112.933594 186.890625 112.960938 185.6875 113.015625 184.488281 C 113.070312 183.285156 113.15625 182.085938 113.273438 180.890625 C 113.386719 179.691406 113.53125 178.5 113.707031 177.308594 C 113.878906 176.117188 114.082031 174.933594 114.316406 173.753906 C 114.546875 172.574219 114.808594 171.398438 115.097656 170.234375 C 115.386719 169.066406 115.707031 167.90625 116.050781 166.753906 C 116.398438 165.601562 116.773438 164.460938 117.175781 163.328125 C 117.578125 162.195312 118.007812 161.070312 118.46875 159.960938 C 118.925781 158.847656 119.410156 157.746094 119.921875 156.660156 C 120.433594 155.570312 120.972656 154.496094 121.539062 153.433594 C 122.101562 152.371094 122.691406 151.324219 123.308594 150.292969 C 123.925781 149.257812 124.566406 148.242188 125.234375 147.242188 C 125.898438 146.238281 126.589844 145.253906 127.304688 144.289062 C 128.019531 143.320312 128.757812 142.371094 129.515625 141.441406 C 130.277344 140.507812 131.0625 139.597656 131.867188 138.703125 C 132.675781 137.8125 133.5 136.941406 134.351562 136.089844 C 135.199219 135.234375 136.070312 134.40625 136.957031 133.597656 C 137.847656 132.789062 138.757812 132 139.6875 131.234375 C 140.613281 130.472656 141.5625 129.730469 142.523438 129.011719 C 143.488281 128.292969 144.472656 127.601562 145.472656 126.929688 C 146.46875 126.261719 147.484375 125.617188 148.515625 124.996094 C 149.546875 124.375 150.589844 123.78125 151.652344 123.214844 C 152.710938 122.644531 153.785156 122.101562 154.871094 121.585938 C 155.957031 121.070312 157.054688 120.582031 158.164062 120.121094 C 159.273438 119.65625 160.394531 119.222656 161.527344 118.816406 C 162.660156 118.410156 163.800781 118.03125 164.953125 117.679688 C 166.101562 117.328125 167.261719 117.007812 168.425781 116.714844 C 169.59375 116.417969 170.765625 116.15625 171.945312 115.917969 C 173.125 115.683594 174.308594 115.476562 175.496094 115.296875 C 176.6875 115.121094 177.878906 114.96875 179.078125 114.851562 C 180.273438 114.730469 181.472656 114.640625 182.671875 114.582031 C 183.875 114.519531 185.078125 114.488281 186.277344 114.488281 C 187.480469 114.488281 188.683594 114.515625 189.882812 114.574219 C 191.085938 114.628906 192.285156 114.71875 193.480469 114.835938 C 194.679688 114.949219 195.871094 115.097656 197.0625 115.273438 C 198.253906 115.445312 199.4375 115.652344 200.617188 115.882812 C 201.796875 116.117188 202.96875 116.378906 204.136719 116.671875 C 205.304688 116.960938 206.460938 117.28125 207.613281 117.628906 C 208.765625 117.976562 209.90625 118.355469 211.039062 118.757812 C 212.171875 119.160156 213.292969 119.59375 214.40625 120.054688 C 215.519531 120.511719 216.617188 121 217.703125 121.511719 C 218.792969 122.023438 219.867188 122.566406 220.929688 123.128906 C 221.988281 123.695312 223.035156 124.289062 224.066406 124.90625 C 225.101562 125.523438 226.117188 126.164062 227.117188 126.832031 C 228.117188 127.5 229.101562 128.191406 230.066406 128.90625 C 231.035156 129.625 231.980469 130.363281 232.910156 131.125 C 233.84375 131.886719 234.753906 132.671875 235.644531 133.480469 C 236.535156 134.285156 237.40625 135.113281 238.257812 135.964844 C 239.109375 136.816406 239.9375 137.683594 240.746094 138.574219 C 241.554688 139.464844 242.339844 140.375 243.105469 141.304688 C 243.867188 142.234375 244.609375 143.183594 245.324219 144.148438 C 246.042969 145.113281 246.734375 146.097656 247.402344 147.097656 C 248.070312 148.09375 248.714844 149.109375 249.332031 150.140625 C 249.953125 151.171875 250.546875 152.21875 251.113281 153.28125 C 251.679688 154.339844 252.222656 155.414062 252.734375 156.5 C 253.25 157.589844 253.738281 158.6875 254.199219 159.796875 C 254.660156 160.910156 255.09375 162.03125 255.496094 163.164062 C 255.902344 164.296875 256.28125 165.4375 256.628906 166.585938 C 256.980469 167.738281 257.300781 168.898438 257.59375 170.0625 C 257.886719 171.230469 258.148438 172.402344 258.382812 173.582031 C 258.617188 174.761719 258.824219 175.945312 259 177.136719 C 259.175781 178.324219 259.324219 179.519531 259.441406 180.714844 C 259.558594 181.914062 259.648438 183.113281 259.707031 184.3125 C 259.765625 185.515625 259.796875 186.714844 259.796875 187.917969 C 259.796875 189.121094 259.765625 190.324219 259.707031 191.523438 C 259.648438 192.726562 259.558594 193.925781 259.441406 195.121094 C 259.324219 196.316406 259.175781 197.511719 259 198.699219 C 258.824219 199.890625 258.617188 201.074219 258.382812 202.253906 C 258.148438 203.433594 257.886719 204.605469 257.59375 205.773438 C 257.300781 206.941406 256.980469 208.097656 256.628906 209.25 C 256.28125 210.402344 255.902344 211.542969 255.496094 212.675781 C 255.09375 213.808594 254.660156 214.929688 254.199219 216.039062 C 253.738281 217.148438 253.25 218.25 252.734375 219.335938 C 252.222656 220.421875 251.679688 221.496094 251.113281 222.558594 C 250.546875 223.617188 249.953125 224.664062 249.332031 225.695312 C 248.714844 226.726562 248.070312 227.742188 247.402344 228.742188 C 246.734375 229.742188 246.042969 230.722656 245.324219 231.6875 C 244.609375 232.65625 243.867188 233.601562 243.105469 234.53125 C 242.339844 235.460938 241.554688 236.371094 240.746094 237.261719 C 239.9375 238.152344 239.109375 239.023438 238.257812 239.871094 C 237.40625 240.722656 236.535156 241.550781 235.644531 242.359375 C 234.753906 243.164062 233.84375 243.949219 232.910156 244.710938 C 231.980469 245.472656 231.035156 246.214844 230.066406 246.929688 C 229.101562 247.644531 228.117188 248.335938 227.117188 249.003906 C 226.117188 249.671875 225.101562 250.3125 224.066406 250.929688 C 223.035156 251.546875 221.988281 252.140625 220.929688 252.707031 C 219.867188 253.273438 218.792969 253.8125 217.703125 254.324219 C 216.617188 254.839844 215.519531 255.324219 214.40625 255.785156 C 213.292969 256.242188 212.171875 256.675781 211.039062 257.078125 C 209.90625 257.484375 208.765625 257.859375 207.613281 258.207031 C 206.460938 258.554688 205.304688 258.875 204.136719 259.167969 C 202.96875 259.457031 201.796875 259.71875 200.617188 259.953125 C 199.4375 260.1875 198.253906 260.390625 197.0625 260.566406 C 195.871094 260.742188 194.679688 260.886719 193.480469 261.003906 C 192.285156 261.121094 191.085938 261.207031 189.886719 261.265625 C 188.683594 261.320312 187.480469 261.351562 186.277344 261.347656 C 185.078125 261.347656 183.882812 261.316406 182.683594 261.257812 C 181.488281 261.195312 180.292969 261.105469 179.097656 260.988281 C 177.90625 260.871094 176.714844 260.722656 175.53125 260.546875 C 174.34375 260.367188 173.164062 260.164062 171.988281 259.925781 C 170.8125 259.691406 169.640625 259.429688 168.480469 259.136719 C 167.316406 258.84375 166.160156 258.523438 165.015625 258.175781 C 163.867188 257.828125 162.730469 257.449219 161.601562 257.046875 C 160.472656 256.640625 159.351562 256.210938 158.246094 255.75 C 157.136719 255.292969 156.042969 254.804688 154.957031 254.292969 C 153.875 253.78125 152.804688 253.242188 151.746094 252.675781 C 150.6875 252.109375 149.644531 251.519531 148.617188 250.902344 C 147.589844 250.285156 146.578125 249.644531 145.578125 248.980469 C 144.582031 248.3125 143.601562 247.625 142.640625 246.910156 C 141.675781 246.195312 140.730469 245.457031 139.804688 244.699219 C 138.875 243.9375 137.96875 243.15625 137.078125 242.351562 C 136.191406 241.546875 135.324219 240.71875 134.472656 239.871094 C 133.625 239.023438 132.796875 238.15625 131.992188 237.269531 C 131.1875 236.382812 130.402344 235.476562 129.640625 234.546875 C 128.878906 233.621094 128.140625 232.679688 127.425781 231.714844 C 126.710938 230.753906 126.019531 229.773438 125.351562 228.777344 C 124.6875 227.78125 124.042969 226.769531 123.425781 225.742188 C 122.808594 224.714844 122.214844 223.671875 121.648438 222.613281 C 121.082031 221.558594 120.542969 220.488281 120.027344 219.40625 C 119.515625 218.320312 119.027344 217.226562 118.566406 216.121094 C 118.105469 215.011719 117.671875 213.894531 117.269531 212.765625 C 116.863281 211.636719 116.484375 210.5 116.132812 209.355469 C 115.785156 208.207031 115.460938 207.054688 115.167969 205.890625 C 114.875 204.726562 114.609375 203.558594 114.375 202.382812 C 114.136719 201.207031 113.929688 200.027344 113.753906 198.839844 C 113.574219 197.65625 113.425781 196.464844 113.304688 195.273438 C 113.183594 194.082031 113.09375 192.886719 113.03125 191.6875 C 112.972656 190.492188 112.9375 189.292969 112.9375 188.09375 Z M 186.277344 335.859375 L 186.277344 320.371094 C 188.441406 320.367188 190.605469 320.3125 192.765625 320.203125 C 194.925781 320.09375 197.085938 319.933594 199.238281 319.71875 C 201.390625 319.503906 203.539062 319.234375 205.679688 318.914062 C 207.816406 318.59375 209.949219 318.222656 212.070312 317.796875 C 214.191406 317.375 216.304688 316.898438 218.402344 316.371094 C 220.5 315.84375 222.585938 315.261719 224.652344 314.632812 C 226.722656 314.003906 228.777344 313.324219 230.816406 312.59375 C 232.851562 311.859375 234.867188 311.082031 236.867188 310.25 C 238.867188 309.421875 240.84375 308.542969 242.796875 307.617188 C 244.753906 306.691406 246.6875 305.71875 248.59375 304.695312 C 250.5 303.675781 252.382812 302.605469 254.238281 301.492188 C 256.09375 300.378906 257.921875 299.222656 259.71875 298.019531 C 261.519531 296.816406 263.285156 295.570312 265.023438 294.28125 C 266.761719 292.992188 268.46875 291.660156 270.140625 290.285156 C 271.8125 288.914062 273.449219 287.5 275.050781 286.046875 C 276.65625 284.59375 278.222656 283.101562 279.753906 281.570312 C 281.28125 280.042969 282.773438 278.472656 284.226562 276.871094 C 285.679688 275.269531 287.09375 273.628906 288.464844 271.957031 C 289.839844 270.285156 291.171875 268.578125 292.460938 266.839844 C 293.75 265.105469 294.996094 263.335938 296.199219 261.535156 C 297.402344 259.738281 298.558594 257.910156 299.671875 256.054688 C 300.785156 254.199219 301.851562 252.316406 302.871094 250.410156 C 303.894531 248.5 304.867188 246.570312 305.792969 244.613281 C 306.71875 242.660156 307.597656 240.679688 308.425781 238.683594 C 309.257812 236.683594 310.035156 234.667969 310.765625 232.628906 C 311.496094 230.59375 312.175781 228.539062 312.808594 226.46875 C 313.4375 224.398438 314.015625 222.316406 314.542969 220.214844 C 315.070312 218.117188 315.546875 216.007812 315.96875 213.886719 C 316.394531 211.761719 316.765625 209.632812 317.085938 207.492188 C 317.40625 205.351562 317.671875 203.207031 317.886719 201.050781 C 318.101562 198.898438 318.265625 196.742188 318.375 194.582031 C 318.480469 192.417969 318.539062 190.257812 318.539062 188.09375 L 334.429688 188.09375 C 334.421875 190.511719 334.355469 192.929688 334.230469 195.347656 C 334.101562 197.765625 333.917969 200.175781 333.671875 202.585938 C 333.425781 204.992188 333.125 207.394531 332.761719 209.785156 C 332.398438 212.179688 331.980469 214.5625 331.5 216.933594 C 331.023438 219.304688 330.484375 221.664062 329.890625 224.011719 C 329.296875 226.359375 328.644531 228.6875 327.9375 231.003906 C 327.230469 233.316406 326.464844 235.613281 325.644531 237.886719 C 324.824219 240.164062 323.945312 242.421875 323.015625 244.652344 C 322.082031 246.886719 321.097656 249.097656 320.058594 251.28125 C 319.019531 253.46875 317.925781 255.628906 316.78125 257.757812 C 315.636719 259.890625 314.441406 261.992188 313.191406 264.066406 C 311.945312 266.140625 310.644531 268.183594 309.296875 270.191406 C 307.949219 272.203125 306.550781 274.179688 305.109375 276.121094 C 303.664062 278.0625 302.171875 279.964844 300.632812 281.835938 C 299.09375 283.703125 297.511719 285.53125 295.882812 287.324219 C 294.257812 289.113281 292.585938 290.863281 290.871094 292.574219 C 289.160156 294.28125 287.402344 295.949219 285.609375 297.570312 C 283.8125 299.195312 281.980469 300.773438 280.109375 302.304688 C 278.234375 303.839844 276.328125 305.328125 274.382812 306.765625 C 272.4375 308.207031 270.457031 309.597656 268.445312 310.941406 C 266.429688 312.285156 264.386719 313.578125 262.308594 314.820312 C 260.230469 316.0625 258.125 317.253906 255.992188 318.394531 C 253.855469 319.53125 251.695312 320.621094 249.507812 321.652344 C 247.316406 322.6875 245.105469 323.667969 242.871094 324.59375 C 240.632812 325.515625 238.375 326.386719 236.097656 327.203125 C 233.816406 328.019531 231.519531 328.777344 229.203125 329.480469 C 226.890625 330.179688 224.558594 330.828125 222.210938 331.414062 C 219.863281 332.003906 217.5 332.535156 215.128906 333.007812 C 212.753906 333.480469 210.371094 333.894531 207.976562 334.25 C 205.582031 334.605469 203.183594 334.902344 200.773438 335.140625 C 198.363281 335.378906 195.953125 335.558594 193.535156 335.675781 C 191.117188 335.796875 188.699219 335.859375 186.277344 335.859375 Z M 186.277344 335.859375"/></svg>