<svg xmlns="http://www.w3.org/2000/svg" width="1190.25" viewBox="0 0 1190.25 1683.75" height="1683.75" version="1.0"><defs><clipPath id="a"><path d="M 764 345.269531 L 854 345.269531 L 854 473 L 764 473 Z M 764 345.269531"/></clipPath><clipPath id="b"><path d="M 876 345.269531 L 966 345.269531 L 966 473 L 876 473 Z M 876 345.269531"/></clipPath><clipPath id="c"><path d="M 22 1290 L 1048 1290 L 1048 1387.550781 L 22 1387.550781 Z M 22 1290"/></clipPath><clipPath id="d"><path d="M 1084 1364 L 1168 1364 L 1168 1387.550781 L 1084 1387.550781 Z M 1084 1364"/></clipPath></defs><g clip-path="url(#a)"><path fill="#004AAD" d="M 853.511719 472.636719 L 853.511719 345.269531 C 817.277344 352.28125 785.722656 394.347656 764.683594 453.941406 C 792.734375 465.625 823.121094 471.464844 853.511719 472.636719 Z M 853.511719 472.636719"/></g><g clip-path="url(#b)"><path fill="#004AAD" d="M 876.886719 345.269531 L 876.886719 472.636719 C 907.277344 471.464844 937.664062 464.457031 965.714844 453.9375 C 944.675781 394.347656 913.121094 352.28125 876.886719 345.269531 Z M 876.886719 345.269531"/></g><path fill="#004AAD" d="M 590.535156 630.378906 C 594.039062 699.320312 622.089844 764.753906 671.179688 813.828125 C 691.050781 797.472656 712.085938 782.28125 735.464844 771.765625 C 723.777344 730.867188 715.59375 682.960938 715.59375 631.546875 L 590.535156 631.546875 Z M 590.535156 630.378906"/><path fill="#004AAD" d="M 965.714844 784.617188 C 937.664062 772.933594 907.277344 767.089844 876.886719 765.921875 L 876.886719 893.285156 C 913.121094 885.105469 944.675781 844.210938 965.714844 784.617188 Z M 965.714844 784.617188"/><path fill="#004AAD" d="M 992.597656 630.378906 L 878.054688 630.378906 L 878.054688 741.382812 C 910.78125 742.554688 943.507812 749.5625 973.898438 761.25 C 984.417969 722.6875 991.429688 678.285156 992.597656 630.378906 Z M 992.597656 630.378906"/><path fill="#004AAD" d="M 972.726562 476.140625 C 942.339844 487.824219 909.613281 494.835938 876.886719 496.003906 L 876.886719 607.011719 L 992.597656 607.011719 C 991.429688 560.269531 984.417969 514.699219 972.726562 476.140625 Z M 972.726562 476.140625"/><path fill="#004AAD" d="M 934.15625 885.105469 C 973.898438 874.589844 1010.128906 855.894531 1041.6875 829.019531 C 1025.324219 815 1006.625 803.3125 987.921875 793.964844 C 973.898438 832.527344 956.367188 864.074219 934.15625 885.105469 Z M 934.15625 885.105469"/><path fill="#004AAD" d="M 853.511719 893.285156 L 853.511719 765.921875 C 823.121094 767.089844 792.734375 774.101562 764.683594 784.617188 C 785.722656 844.210938 817.277344 885.105469 853.511719 893.285156 Z M 853.511719 893.285156"/><path fill="#004AAD" d="M 742.476562 793.964844 C 723.777344 803.3125 705.074219 815 688.710938 829.019531 C 720.269531 855.894531 756.5 874.589844 796.242188 885.105469 C 775.203125 864.074219 756.5 832.527344 742.476562 793.964844 Z M 742.476562 793.964844"/><path fill="#004AAD" d="M 1015.972656 607.007812 L 1141.035156 607.007812 C 1137.527344 538.070312 1109.476562 472.636719 1060.386719 423.558594 C 1040.519531 439.917969 1019.480469 455.109375 996.105469 465.625 C 1007.792969 507.6875 1014.804688 555.597656 1015.972656 607.007812 Z M 1015.972656 607.007812"/><path fill="#004AAD" d="M 1015.972656 630.378906 C 1014.804688 681.792969 1007.792969 729.699219 996.105469 770.597656 C 1019.480469 782.28125 1040.519531 796.304688 1060.386719 812.660156 C 1109.476562 763.585938 1138.695312 698.152344 1141.035156 629.210938 L 1015.972656 629.210938 Z M 1015.972656 630.378906"/><path fill="#004AAD" d="M 1041.6875 408.367188 C 1011.296875 382.664062 977.402344 363.96875 938.832031 353.449219 C 937.664062 353.449219 935.328125 352.28125 934.15625 352.28125 C 955.195312 373.316406 973.898438 404.863281 987.921875 443.421875 C 1006.625 435.242188 1025.324219 422.390625 1041.6875 408.367188 Z M 1041.6875 408.367188"/><path fill="#004AAD" d="M 853.511719 496.003906 C 820.785156 494.835938 788.058594 487.824219 757.671875 476.140625 C 745.984375 514.699219 740.140625 559.101562 738.96875 607.007812 L 853.511719 607.007812 Z M 853.511719 496.003906"/><path fill="#004AAD" d="M 853.511719 630.378906 L 738.96875 630.378906 C 740.140625 678.285156 747.152344 722.6875 757.671875 761.25 C 788.058594 749.5625 820.785156 742.554688 853.511719 741.382812 Z M 853.511719 630.378906"/><path fill="#004AAD" d="M 796.242188 353.449219 C 756.5 363.96875 720.269531 381.492188 688.710938 408.367188 C 705.074219 422.390625 723.777344 434.074219 742.476562 443.421875 C 756.5 406.03125 775.203125 374.484375 796.242188 353.449219 Z M 796.242188 353.449219"/><g clip-path="url(#c)"><path fill="#004AAD" d="M 1035.84375 1364.183594 L 915.457031 1364.183594 C 916.625 1363.011719 917.796875 1361.84375 918.964844 1361.84375 C 935.328125 1345.488281 944.675781 1323.285156 944.675781 1298.746094 C 944.675781 1294.074219 941.171875 1290.566406 936.496094 1290.566406 L 55.226562 1290.566406 C 50.550781 1290.566406 47.046875 1294.074219 47.046875 1298.746094 C 47.046875 1324.453125 58.734375 1347.824219 76.265625 1364.183594 L 34.1875 1364.183594 C 27.175781 1364.183594 22.5 1368.855469 22.5 1375.867188 C 22.5 1382.878906 27.175781 1387.550781 34.1875 1387.550781 L 1035.84375 1387.550781 C 1042.855469 1387.550781 1047.53125 1382.878906 1047.53125 1375.867188 C 1047.53125 1368.855469 1041.6875 1364.183594 1035.84375 1364.183594 Z M 1035.84375 1364.183594"/></g><g clip-path="url(#d)"><path fill="#004AAD" d="M 1156.230469 1364.183594 L 1096.621094 1364.183594 C 1089.609375 1364.183594 1084.933594 1368.855469 1084.933594 1375.867188 C 1084.933594 1382.878906 1089.609375 1387.550781 1096.621094 1387.550781 L 1156.230469 1387.550781 C 1163.242188 1387.550781 1167.917969 1382.878906 1167.917969 1375.867188 C 1167.917969 1368.855469 1163.242188 1364.183594 1156.230469 1364.183594 Z M 1156.230469 1364.183594"/></g><path fill="#004AAD" d="M 907.277344 914.320312 C 896.757812 915.488281 885.070312 916.65625 873.382812 916.65625 C 862.863281 917.824219 852.34375 917.824219 840.65625 916.65625 L 840.65625 1211.113281 L 149.898438 1211.113281 L 149.898438 785.785156 L 618.585938 785.785156 C 604.558594 765.921875 594.039062 743.722656 584.6875 720.351562 L 308.855469 720.351562 L 308.855469 536.902344 C 308.855469 514.699219 326.386719 497.171875 348.59375 497.171875 L 619.753906 497.171875 C 602.222656 531.058594 592.871094 569.617188 590.535156 608.179688 L 715.59375 608.179688 C 716.761719 556.765625 723.777344 508.859375 735.464844 467.960938 C 712.085938 456.277344 691.050781 442.253906 671.179688 425.894531 C 655.984375 441.085938 643.128906 457.445312 632.609375 474.972656 L 348.59375 474.972656 C 313.53125 474.972656 285.480469 503.015625 285.480469 538.070312 L 285.480469 721.519531 L 130.027344 721.519531 C 105.484375 721.519531 84.445312 741.382812 84.445312 767.089844 L 84.445312 1267.199219 L 907.277344 1267.199219 Z M 907.277344 914.320312"/><path fill="#004AAD" d="M 495.859375 887.445312 C 422.226562 887.445312 361.449219 947.035156 361.449219 1021.820312 C 361.449219 1095.433594 421.058594 1156.195312 495.859375 1156.195312 C 569.496094 1156.195312 630.273438 1096.601562 630.273438 1021.820312 C 630.273438 947.035156 569.496094 887.445312 495.859375 887.445312 Z M 568.328125 1076.738281 C 573 1081.410156 573 1088.421875 568.328125 1093.09375 C 565.988281 1095.433594 562.480469 1096.601562 560.144531 1096.601562 C 557.808594 1096.601562 554.300781 1095.433594 551.964844 1093.09375 L 497.03125 1037.007812 L 442.097656 1093.09375 C 437.421875 1097.769531 430.410156 1097.769531 425.734375 1093.09375 C 421.058594 1090.757812 419.890625 1088.421875 419.890625 1084.917969 C 419.890625 1081.410156 421.058594 1079.074219 423.394531 1076.738281 L 478.328125 1021.820312 L 423.394531 966.898438 C 421.058594 964.5625 419.890625 962.226562 419.890625 958.722656 C 419.890625 955.214844 421.058594 952.878906 423.394531 950.542969 C 428.070312 945.867188 435.082031 945.867188 439.757812 950.542969 L 494.691406 1006.628906 L 549.625 950.542969 C 554.300781 945.867188 561.3125 945.867188 565.988281 950.542969 C 570.664062 955.214844 570.664062 962.226562 565.988281 966.898438 L 509.886719 1021.820312 Z M 568.328125 1076.738281"/></svg>